<svg width="18" height="31" viewBox="0 0 18 31" fill="none" xmlns="http://www.w3.org/2000/svg">
<path d="M3.21247 0.325684C2.07356 5.74301 1.00889 11.176 0.0184485 16.6227C-0.00304031 16.742 -0.0206221 16.877 0.0555656 16.9709C0.120032 17.0511 0.233337 17.0707 0.334921 17.0863C2.67721 17.4287 5.02144 17.7711 7.36373 18.1115C7.55322 18.1389 7.67043 18.3345 7.60792 18.5165C7.21721 19.6473 6.54715 20.6705 5.87123 21.6624C3.97044 24.4523 2.63813 26.7687 0.579112 29.9889C0.391573 30.2804 0.756884 30.6111 1.02647 30.392C2.98391 28.8112 5.76965 26.0839 6.95544 25.0666C11.3978 21.2574 13.0505 19.5906 17.8991 15.2101C18.073 15.0536 18.0124 14.768 17.7917 14.6917C15.1095 13.7683 12.8375 13.4376 10.2725 12.8487C10.0967 12.8077 9.99318 12.6257 10.0479 12.4535C11.2923 8.70112 13.2009 5.04848 14.2519 1.23738C14.3046 1.04956 14.1679 0.861743 13.9725 0.851961C10.4484 0.664144 6.31077 0.325684 3.21247 0.325684Z" fill="#181818"/>
</svg>
