<svg id="Layer_1" data-name="Layer 1" xmlns="http://www.w3.org/2000/svg" viewBox="0 0 48 37.3"><defs><style>.cls-1{fill:#010101;}</style></defs><path class="cls-1" d="M1.5,9.6c.3,7.9.4,15.7.6,23.6.1,5-.2,9.5,5.9,10s14.9.3,22.3.2l11.3-.2c1.8-.1,4.7.2,6.2-1s1.7-3.1,1.7-5c.1-4.2-.1-8.4-.2-12.5L49,13.1c-.1-2.1,0-4.2-1.8-5.6s-4.8-1.3-7.1-1.3H28.9c-8.1.3-16.2.8-24.4.3-3.8-.2-3.8,5.8,0,6,11,.6,21.9-.5,32.8-.5,3.5.1,5.3-.6,5.7,3a49.2,49.2,0,0,1,.2,8.6c.1,2.9.2,5.8.2,8.7,0,1.2,0,2.5.1,3.8v2c1-.9,1.1-1.2.4-1.1-10.7,0-21.4.4-32.1.2-.8,0-3.2.3-3.8-.1,1.1.7.2-1,.2-2.2S8,30,8,27.5c-.2-5.9-.2-11.9-.5-17.9-.1-3.8-6.1-3.8-6,0Z" transform="translate(-1.5 -6.2)"/><path class="cls-1" d="M3.2,13c5.4,6.4,12,11.4,17.9,17.3a3.4,3.4,0,0,0,3.7.5A114.4,114.4,0,0,0,46.4,15.4c2.8-2.6-1.4-6.8-4.3-4.3A101.2,101.2,0,0,1,21.8,25.6l3.6.5c-5.9-5.9-12.6-10.9-18-17.3C4.9,5.8.7,10.1,3.2,13Z" transform="translate(-1.5 -6.2)"/></svg>