<svg id="Layer_1" data-name="Layer 1" xmlns="http://www.w3.org/2000/svg" viewBox="0 0 43.4 48"><defs><style>.cls-1{fill:#010101;}</style></defs><path class="cls-1" d="M41.2,43.7H18.3c-2.1,0-4.6.3-6.7-.1S9.3,41.9,9,40.4a37,37,0,0,1-.7-6.6,107.3,107.3,0,0,1,.2-15l.8-7.2c.2-1.2.4-2.4.7-3.6s.2-.5.1-.7-.9.4-.4.5l2-.4A142.1,142.1,0,0,1,26.3,5.5a62.6,62.6,0,0,1,7.5-.1l3.4.3a13.4,13.4,0,0,1,3.5.5h-.2l.3.4a6.2,6.2,0,0,0,.4,1.6,12.4,12.4,0,0,1,.4,3.3c.2,2.4.2,4.9.2,7.4L42,36c0,2.2.1,4.5.1,6.7,0,.2-.1.3-.1.4v.2c0,.2-.1.2-.1.3s.1-.1,0,0,.2-.3-.1.1.5,0-.1,0h-.5a2.3,2.3,0,0,0-2.3,2.2v.2a2.4,2.4,0,0,0,2.3,2.4,5,5,0,0,0,4.9-2.7,9.9,9.9,0,0,0,.7-4.5l-.3-17.5V15.4A34,34,0,0,0,45.9,7a10.2,10.2,0,0,0-1.4-3.4,5,5,0,0,0-3.4-2,48.1,48.1,0,0,0-8.5-1A91.3,91.3,0,0,0,15.3,2.2l-3.9.6A10.5,10.5,0,0,0,7.2,3.9,4.2,4.2,0,0,0,5.4,7c-.2,1.5-.4,3-.7,4.6A142.2,142.2,0,0,0,3.4,28.8a82.7,82.7,0,0,0,.5,8.6,20.9,20.9,0,0,0,1.5,7,7.9,7.9,0,0,0,6.8,4.2c3.1.2,6.3,0,9.5,0H41.3c3.1-.1,3.1-4.9,0-4.8Z" transform="translate(-3.4 -0.6)"/><path class="cls-1" d="M30.5,13.4a6.8,6.8,0,0,0-6.6,2.9,8,8,0,0,0-1.2,4.8c0,7.6.3,15.3.2,23.1,0,3.1,4.8,3.1,4.8,0,0-6.9,0-13.8-.2-20.8v-2a4.8,4.8,0,0,0,0-1.7c0,.1-.2.6,0,.1s.3-.9.1-.4a2.5,2.5,0,0,1,.4-.7h.1c.3-.3-.2,0,.1-.1a3.1,3.1,0,0,1,2.3-.4,2.4,2.4,0,0,0,2.4-2.4,2.3,2.3,0,0,0-2.4-2.3Z" transform="translate(-3.4 -0.6)"/><path class="cls-1" d="M18.3,30.4c4.8-.6,9.6-.9,14.5-1.2a2.4,2.4,0,0,0,2.4-2.4,2.5,2.5,0,0,0-2.4-2.3c-4.9.3-9.7.5-14.5,1.1A2.5,2.5,0,0,0,15.9,28C16,29.1,17,30.5,18.3,30.4Z" transform="translate(-3.4 -0.6)"/></svg>