<svg id="Layer_1" data-name="Layer 1" xmlns="http://www.w3.org/2000/svg" viewBox="0 0 50 50"><defs><style>.cls-1{fill:#010101;}</style></defs><path class="cls-1" d="M26.2,43.8c-4.2-.2-8.5-.5-12.5-2.3a9.7,9.7,0,0,1-4-3.2,13.2,13.2,0,0,1-1.6-2.5l-.8-1.4L7,33.8c-.3-.6.2.5-.1-.2a54.4,54.4,0,0,1-1.5-5.4c-.1-.4-.1-.8-.2-1.2s-.1-.6,0-.1a1.3,1.3,0,0,1-.1-.6,19.3,19.3,0,0,1,0-3.4A17.7,17.7,0,0,1,7.4,17a44.1,44.1,0,0,1,3.5-5.3c2.4-2.9,5.5-4.3,9.2-5.1a23.7,23.7,0,0,1,14.2.8C43,10.6,45.5,20.2,44.6,28.6a14.7,14.7,0,0,1-2.4,7,31.5,31.5,0,0,1-3.7,3.6,19.9,19.9,0,0,1-12.3,4.6c-2.9,0-2.9,4.6,0,4.6a23.1,23.1,0,0,0,13.9-4.7c3.7-2.7,6.9-6,8.3-10.5,2.9-9.8.4-22.5-8.6-28.3A27.8,27.8,0,0,0,24.1,1.3c-5,.4-10.4,1.8-14.3,5a22.3,22.3,0,0,0-4.3,4.9,48,48,0,0,0-3.9,7c-1.8,4.6-1.2,9.3,0,13.9s3.9,9.8,8.2,12.5a23.4,23.4,0,0,0,8,2.9,40,40,0,0,0,8.4.9c3,.1,3-4.5,0-4.6Z"/><path class="cls-1" d="M16.3,21.2c0-.4-.1-.9-.1-1.3a4.3,4.3,0,0,1,.1-.5h0v-.5a1.4,1.4,0,0,0,.2-.7.3.3,0,0,0,.1-.2c0-.1.1-.3,0-.1l.2-.3c-.1.2.1-.1,0,.1s.2-.1,0-.1h.4c.2,0-.2-.1.1,0l.5.2h.4l.4.3h.3l.4.4.4.4.2.2h0v.2a.9.9,0,0,0,1.2.2.8.8,0,0,0,.4-1.1h-.1a6.4,6.4,0,0,0-2-2,5.2,5.2,0,0,0-3-.8,2.6,2.6,0,0,0-1.3,1,5.8,5.8,0,0,0-.5,1.4,6.5,6.5,0,0,0-.2,3.1.9.9,0,1,0,1.8,0Z"/><path class="cls-1" d="M21.1,20.1a12.6,12.6,0,0,1,4.7-.8,9.7,9.7,0,0,1,2.4.1,3.6,3.6,0,0,0,2.3.1l1.7-.8a1.7,1.7,0,0,1,1.3-.5c.5.1.2,0,.2.2a1.1,1.1,0,0,1,.1.8,9.7,9.7,0,0,1-.2,2.4c-.2,1.2,1.6,1.2,1.8,0s.8-3.4-.4-4.7a2.5,2.5,0,0,0-1.9-.5,3.3,3.3,0,0,0-1.9.6l-1,.7a2.4,2.4,0,0,1-1.2,0,12.4,12.4,0,0,0-2.7-.3,15.8,15.8,0,0,0-5.7.9c-1.1.4-.7,2.2.5,1.8Z"/><path class="cls-1" d="M14.6,20.7a8.1,8.1,0,0,0,3.3,11.5,11.6,11.6,0,0,0,4.5,1.2.9.9,0,0,0,.9-.9c0-.4-.3-.9-.7-.9h-.2c-2.5-.3-4.9-1.1-6.3-3.4a6.3,6.3,0,0,1,0-6.5.9.9,0,0,0-.2-1.3h0a1,1,0,0,0-1.3.3Z"/><path class="cls-1" d="M33.9,22.9c1.1.8,1.1,2.8.9,3.9a6,6,0,0,1-2.2,3.6A7.3,7.3,0,0,1,28,31.7H22.4c-1.2-.2-1.2,1.6,0,1.8H29a8,8,0,0,0,5.5-2.2c2.4-2.5,3.4-7.7.4-10a.9.9,0,0,0-1.3.3h0a.8.8,0,0,0,.3,1.2Z"/><path class="cls-1" d="M21.7,31.9a8.8,8.8,0,0,0-2,5.1c-.2,2.3.2,4.5-.2,6.7a1,1,0,0,0,.6,1.1.9.9,0,0,0,1.2-.6,27.4,27.4,0,0,0,.1-6.4A8.2,8.2,0,0,1,23,33.2c.8-1-.5-2.3-1.3-1.3Z"/><path class="cls-1" d="M29.5,33.2c1.7.8,1.6,2.7,1.7,4.4l.6,6c.1.5.4.9.9.9a.9.9,0,0,0,1-.9L33,36.7a16.5,16.5,0,0,0-.6-3.2,3.5,3.5,0,0,0-2-1.8,1.1,1.1,0,0,0-1.3.3.9.9,0,0,0,.4,1.2Z"/><path class="cls-1" d="M19.7,38.3a1.6,1.6,0,0,1-2.2.1h-.1a2,2,0,0,1-.8-1.3l-.9-1.6A6.7,6.7,0,0,0,13,33.2l-1.8-.5-.7-.3-.2-.3c0-.1.1-.1,0,0s-1-1.9-1.6-.9A2.3,2.3,0,0,0,9,33.5a3.5,3.5,0,0,0,2.1,1,5.6,5.6,0,0,1,3.3,2.4,17.4,17.4,0,0,0,1,1.9,3,3,0,0,0,1.7,1.6,3.6,3.6,0,0,0,3.9-.9.8.8,0,0,0-.2-1.2.8.8,0,0,0-1.1,0Z"/></svg>