<svg id="Layer_1" data-name="Layer 1" xmlns="http://www.w3.org/2000/svg" viewBox="0 0 43.6 48.1"><defs><style>.cls-1{fill:#010101;}</style></defs><path class="cls-1" d="M41.1,44.2H18.2c-2.2,0-4.7.4-6.8-.1s-2.3-1.7-2.6-3.2a29.6,29.6,0,0,1-.7-6.6,96.5,96.5,0,0,1,.3-15.2A59.4,59.4,0,0,1,9.2,12c.1-1.2.4-2.5.6-3.7s.2-.5.1-.7-.9.4-.4.5a6.4,6.4,0,0,0,2-.3c4.9-.8,9.7-1.6,14.7-2a62.6,62.6,0,0,1,7.5-.1l3.4.3a13.6,13.6,0,0,1,3.5.7c.1,0-.2-.2-.2-.2l.3.5a7.5,7.5,0,0,1,.4,1.6,16.7,16.7,0,0,1,.5,3.1c.1,2.5.1,5.1.1,7.5l.2,17.1c0,2.3.1,4.6.1,6.9,0,.1,0,.2-.1.2s0,.1,0,.2-.1.3-.1.4.1-.2,0,.1.2-.4-.1.1h-.1c.4-.1-.5-.1-.5-.1a2.3,2.3,0,0,0-2.3,2.4,2.4,2.4,0,0,0,2.3,2.4A4.9,4.9,0,0,0,46,46.2a11.2,11.2,0,0,0,.8-4.5l-.2-17.5V15.7a48.9,48.9,0,0,0-.8-8.5,10.9,10.9,0,0,0-1.3-3.4,5.5,5.5,0,0,0-3.5-2A61.3,61.3,0,0,0,32.5.9,101.4,101.4,0,0,0,15.1,2.4L11.2,3A10.5,10.5,0,0,0,7,4.1,5,5,0,0,0,5.2,7.2c-.3,1.6-.5,3.1-.7,4.7A124.7,124.7,0,0,0,3.2,29.2a80.8,80.8,0,0,0,.5,8.5,22,22,0,0,0,1.5,7.1A7.7,7.7,0,0,0,12,49c3.1.2,6.4,0,9.5,0H41.1c3.1,0,3.1-4.8,0-4.8Z" transform="translate(-3.2 -0.9)"/><path class="cls-1" d="M25.1,34.8c-4.7.8-7.8-5-8-9a10.3,10.3,0,0,1,.4-3A3.6,3.6,0,0,1,19,20.9a8.1,8.1,0,0,1,4.8-2.1,6.5,6.5,0,0,1,3.9.3l.8.4,1,.5a5.2,5.2,0,0,1,1.7,1.9,15.6,15.6,0,0,1,1.5,5.2,7.6,7.6,0,0,1-.3,2.1c-.1.3-.1.5-.2.8v-.3c-.1.3.2-.3,0,0l-1.8,2.5-1.3,1-.5.3h.1l-2,.8-1,.4-.3.2c-.4.1-.5-.1.1,0l1.5.8h0a1.8,1.8,0,0,0-2.3-.7h0a1.7,1.7,0,0,0-.7,2.4h0c.8,1.8,3.8.2,5-.3a10.2,10.2,0,0,0,5.2-4,7.2,7.2,0,0,0,1.4-2.4c0-.2.1-.4.1-.7s-.1.6,0,.3h0v-.3a1.9,1.9,0,0,0,.2-.8c.6-2.3-.3-5.4-1.2-7.7a9.4,9.4,0,0,0-5-5.2A10.6,10.6,0,0,0,24,15.3a18.9,18.9,0,0,0-4.1,1,9.2,9.2,0,0,0-3,1.8,9.6,9.6,0,0,0-2.3,2.6,10.1,10.1,0,0,0-1.1,4.2c-.3,6.8,4.9,14.8,12.5,13.5a1.8,1.8,0,0,0,1.3-2.1h-.1A1.8,1.8,0,0,0,25,35Z" transform="translate(-3.2 -0.9)"/><path class="cls-1" d="M35.1,14.9c3.3,0,3.3-5,0-5S31.9,14.9,35.1,14.9Z" transform="translate(-3.2 -0.9)"/></svg>