<svg id="Layer_1" data-name="Layer 1" xmlns="http://www.w3.org/2000/svg" xmlns:xlink="http://www.w3.org/1999/xlink" viewBox="0 0 240 240"><defs><style>.cls-1{fill:#bfaace;}.cls-2{fill:#231f20;}</style><symbol id="jenna" data-name="jenna" viewBox="0 0 100.2 163.6"><path class="cls-1" d="M20.5,2.5C14.7,30.2,9.2,58,4.2,85.8a2.2,2.2,0,0,0,.2,1.8,2.2,2.2,0,0,0,1.4.6l37.8,5.5c-1.9,6.5-5.7,12.3-9.5,17.9-11,16.1-18.3,29.2-31.6,49.5C11.3,156,32,135.5,39.7,129c23.3-20,31.6-28.5,58-52.2C82.2,71.2,69.6,69.6,55,66.1,61.5,45.8,72.1,26,77.5,5.3c-18.4-.9-40.6-2.8-57-2.8"/><path d="M18.1,1.8Q12.8,26.9,8,52L3.2,77.1c-.4,2.1-.8,4.2-1.1,6.3s-1.1,4.3.5,5.9S6.2,90.7,8.1,91l6.3.9,28.5,4.2L41.2,93c-1.6,5.3-4.4,10-7.4,14.5s-5.5,8.2-8.1,12.3c-5.2,8-10.1,16-15.1,24.1L.4,159.8a2.5,2.5,0,0,0,3.4,3.4,55.3,55.3,0,0,0,7.4-5.3c3.1-2.5,6.1-5.1,9-7.7,5.9-5.3,11.6-10.7,17.4-16.1s12.5-10.8,18.7-16.3,12-10.8,18-16.3C82.6,93.8,91,86.2,99.4,78.6a2.5,2.5,0,0,0-1.1-4.2c-13.8-5-28.3-7.3-42.6-10.7l1.7,3.1C62.6,50.7,70,35.5,75.7,19.6c1.6-4.5,3-9,4.2-13.6a2.5,2.5,0,0,0-2.4-3.2C62.4,2,47.2.8,32.1.2L20.5,0c-3.2,0-3.2,5,0,5C35.3,5,50.1,6.2,64.9,7.1l12.6.7L75.1,4.6C70.8,21,63.5,36.3,57.4,52c-1.7,4.4-3.4,8.9-4.8,13.5a2.5,2.5,0,0,0,1.7,3C68.6,71.9,83.1,74.2,97,79.2l-1.1-4.1C82.3,87.3,68.9,99.8,55.3,112c-6.4,5.7-13,11.2-19.4,17s-11,10.1-16.5,15.2c-3.3,3-6.7,6-10.2,8.8a58,58,0,0,1-7.9,5.9l3.4,3.4c11.1-16.9,21.4-34.3,32.7-51.1,3.5-5.3,6.8-10.7,8.6-16.9a2.5,2.5,0,0,0-1.7-3L19.9,87.7,7.9,86l-1.5-.2H6.1c-.6-.2-.5.1.5.8a3.4,3.4,0,0,0,.1-1L7,84l1.2-6.3c2.9-16,6-31.9,9.2-47.8C19.2,21,21,12.1,22.9,3.2A2.6,2.6,0,0,0,21.2.1a2.5,2.5,0,0,0-3.1,1.7Z"/><path class="cls-2" d="M25.1,52.2c3.3,0,3.3-5,0-5s-3.2,5,0,5Z"/><path class="cls-2" d="M35.9,53.3c3.2,0,3.2-5,0-5s-3.3,5,0,5Z"/><path class="cls-2" d="M21.6,61.8a28.8,28.8,0,0,0,25.9-3.6,2.6,2.6,0,0,0,.9-3.4,2.5,2.5,0,0,0-3.4-.9,24.2,24.2,0,0,1-22.1,3,2.7,2.7,0,0,0-3.1,1.8,2.6,2.6,0,0,0,1.8,3.1Z"/></symbol></defs><use width="100.2" height="163.56" transform="translate(76.7 45)" xlink:href="#jenna"/></svg>