<svg id="Layer_1" data-name="Layer 1" xmlns="http://www.w3.org/2000/svg" viewBox="0 0 32.8 49.4"><defs><style>.cls-1{fill:#010101;}</style></defs><path class="cls-1" d="M24.3,7.7C27.5,4.4,34.6,5,35.4,10.3c.3,2.5-.3,4.6-2.7,5.8s-5.2,1.1-6-1-6-.4-4.7,2.7,7.5,4.8,11.2,3.7a9.8,9.8,0,0,0,7.6-10.2C40.4,1,27.5-3.4,20.5,3.9c-2.4,2.5,1.4,6.2,3.8,3.8Z" transform="translate(-8.4 -0.3)"/><path class="cls-1" d="M19.6,4.3c-7.4,3.5-11,9.6-11.2,17.8a25.5,25.5,0,0,0,7.9,19.1c2.4,2.4,6.1-1.3,3.7-3.7a20.5,20.5,0,0,1-6.3-14.2A19.9,19.9,0,0,1,14.8,16c1.4-3.7,4-5.5,7.4-7.1s.4-6.1-2.6-4.6Z" transform="translate(-8.4 -0.3)"/><path class="cls-1" d="M23.2,13.3c-7.7,5.2-6.6,15.2-.5,21.1,2.4,2.4,6.2-1.3,3.7-3.7s-5.3-9.5-.5-12.7c2.9-1.9.2-6.5-2.7-4.7Z" transform="translate(-8.4 -0.3)"/><path class="cls-1" d="M26.2,34.7c3.3-1.9,8-1.5,9.4,2.5s-.9,6-4.3,6.7c-5.6,1.3-8-2.5-11.3-6.4s-6,1.2-3.7,3.7,5.3,7.1,9.5,8.1,10.6-.2,13.4-3.7,2.7-9.9-.5-13.5-10.3-4.9-15.1-2c-3,1.7-.3,6.3,2.6,4.6Z" transform="translate(-8.4 -0.3)"/></svg>